<svg width="164" height="45" viewBox="0 0 164 45" fill="none" xmlns="http://www.w3.org/2000/svg">
<g clip-path="url(#clip0_1363_72)">
<path d="M58.67 31.73C59.63 31.59 60.41 31.67 60.86 31.73C61.88 31.89 62.68 32.24 63.2 32.52C63.32 32.59 63.46 32.6 63.57 32.52C63.7 32.43 63.75 32.26 63.69 32.1L58.99 0C55.76 0.48 52.52 0.95 49.29 1.42C50.87 12.23 52.45 23.04 54.03 33.85C54.03 33.94 54.09 34.03 54.18 34.05C54.26 34.07 54.35 34.05 54.4 33.98C54.83 33.52 55.55 32.87 56.58 32.37C56.99 32.17 57.72 31.87 58.68 31.73H58.67Z" fill="#B02673"/>
<path d="M14.6301 23.66C15.8501 22.54 16.6801 21.28 17.1201 19.87C17.5601 18.46 17.7801 17.32 17.7801 16.44V10.49C17.7801 8.63 17.3301 6.94 16.4301 5.43C15.5301 3.92 14.3201 2.72 12.8001 1.82C11.9701 1.33 11.2701 1.08 10.9801 0.980002C10.2801 0.740002 9.18008 0.460002 7.78008 0.470002C5.95008 0.480002 4.11008 0.490002 2.28008 0.510002C2.13008 0.510002 1.33008 0.510002 0.690078 1.14C0.0800781 1.72 0.0200781 2.44 7.81238e-05 2.6V41.96C7.81238e-05 41.96 -0.0299219 42.33 0.230078 42.55C0.400078 42.69 0.590078 42.7 0.650078 42.7H6.97008C6.97008 42.7 7.22008 42.72 7.40008 42.55C7.59008 42.37 7.58008 42.13 7.58008 42.1C7.58008 34.5 7.58008 26.36 7.58008 26.31C7.58008 26.28 7.60008 26.27 7.60008 26.27C7.62008 26.25 7.65008 26.25 7.66008 26.25H7.97008C7.97008 26.25 8.01008 26.25 8.04008 26.27C8.05008 26.28 8.05008 26.3 8.05008 26.3C8.05008 26.31 8.84008 32.37 10.0601 41.77C10.0601 41.83 10.1101 42.24 10.4801 42.51C10.8401 42.77 11.2401 42.69 11.3001 42.68C12.9501 42.68 14.6101 42.68 16.2601 42.68C16.3001 42.68 16.9801 42.72 17.3601 42.17C17.6401 41.77 17.5601 41.33 17.5401 41.25C16.5701 35.63 15.6001 30.02 14.6401 24.4V23.64L14.6301 23.66ZM7.63008 19.64C7.55008 19.56 7.57008 19.45 7.57008 19.45V7.26C7.57008 7.26 7.57008 7.19 7.61008 7.14C7.66008 7.08 7.73008 7.08 7.74008 7.08H7.98008C8.20008 7.08 8.61008 7.1 9.05008 7.31C9.22008 7.4 9.38008 7.5 9.53008 7.63C9.95008 8 10.1601 8.9 10.1601 10.33V16.43C10.1601 17.89 9.95008 18.79 9.53008 19.15C9.11008 19.51 8.59008 19.68 7.98008 19.68H7.81008C7.81008 19.68 7.71008 19.69 7.64008 19.62L7.63008 19.64Z" fill="white"/>
<path d="M27.8305 35.81C27.3805 35.41 27.3805 34.85 27.3805 34.76V26.49C27.3805 26.44 27.3605 26.04 27.6705 25.74C28.0105 25.42 28.4405 25.49 28.4905 25.5C29.1205 25.49 29.7505 25.47 30.3705 25.46C30.4205 25.46 31.1305 25.54 31.5505 25.01C31.7705 24.73 31.8005 24.42 31.8005 24.29V19.32C31.8005 19.25 31.8605 18.71 31.4405 18.28C31.0105 17.84 30.4405 17.89 30.3805 17.9C29.7205 17.88 29.0505 17.86 28.3905 17.84C28.3305 17.84 27.9705 17.88 27.6805 17.61C27.3505 17.31 27.3805 16.89 27.3905 16.84V8.50998C27.3905 8.43998 27.3205 7.90999 27.7105 7.48998C28.1305 7.02998 28.7205 7.07999 28.7805 7.08999H32.7805C32.8505 7.08999 33.3205 7.12999 33.6905 6.76999C34.0305 6.43999 34.0405 6.02998 34.0405 5.94999V1.74998C34.0405 1.68999 34.0505 1.06998 33.5505 0.699985C33.2205 0.449985 32.8605 0.469985 32.7505 0.469985H21.2105C21.0505 0.479985 20.7105 0.529985 20.3905 0.769985C19.7505 1.25998 19.8105 2.10998 19.8205 2.17999V40.6C19.8205 40.74 19.8605 41.6 20.5705 42.2C21.0905 42.64 21.6605 42.69 21.8605 42.7C25.3205 42.7 28.7705 42.7 32.2305 42.7C32.3305 42.7 33.0405 42.73 33.5705 42.19C34.0205 41.73 34.0505 41.17 34.0505 41.04C34.0505 39.94 34.0505 38.84 34.0505 37.73C34.0505 37.63 33.9805 36.85 33.3105 36.41C32.8505 36.1 32.3705 36.13 32.2205 36.14H28.7305C28.6205 36.14 28.2105 36.12 27.8505 35.81H27.8305Z" fill="white"/>
<path d="M80.9396 6.70001C81.2996 6.33001 81.3196 5.87001 81.3196 5.78001C81.3196 4.40001 81.3196 3.03001 81.3196 1.65001C81.3196 1.58001 81.3296 1.13001 80.9796 0.780012C80.6396 0.450012 80.2196 0.450012 80.1396 0.450012C75.2296 0.450012 70.3196 0.450012 65.4096 0.460012C65.3196 0.460012 64.8396 0.460012 64.4596 0.840012C64.0496 1.24001 64.0596 1.76001 64.0596 1.85001V5.53001C64.0596 5.65001 64.0996 6.18001 64.5296 6.60001C65.0196 7.08001 65.6296 7.07001 65.7296 7.06001H68.4396C68.4396 7.06001 68.6396 7.05001 68.7696 7.18001C68.8996 7.32001 68.8796 7.50001 68.8696 7.52001V41.55C68.8696 41.63 68.9096 42.06 69.2796 42.39C69.6196 42.69 70.0096 42.68 70.0996 42.68C71.8296 42.68 73.5496 42.69 75.2796 42.7C75.3396 42.7 75.8196 42.74 76.1796 42.37C76.5096 42.03 76.4896 41.6 76.4896 41.53C76.4896 21.76 76.4896 7.53001 76.4896 7.34001C76.4896 7.32001 76.4896 7.25001 76.5296 7.19001C76.5896 7.10001 76.7096 7.05001 76.8396 7.06001H79.8996C79.9796 7.06001 80.5296 7.10001 80.9496 6.68001L80.9396 6.70001Z" fill="white"/>
<path d="M104.181 1.03999C103.721 1.54999 103.721 2.15999 103.721 2.28999C102.391 15.35 101.071 28.41 99.7405 41.47C99.7405 41.53 99.7005 42 100.071 42.34C100.401 42.64 100.801 42.61 100.871 42.61C102.511 42.64 104.151 42.66 105.791 42.69C105.831 42.69 106.281 42.75 106.571 42.42C106.761 42.21 106.771 41.96 106.781 41.88C106.891 38.37 106.991 34.87 107.101 31.36C107.101 31.34 107.101 31.19 107.211 31.09C107.301 31 107.421 31 107.441 31H109.481C109.481 31 109.631 30.99 109.731 31.09C109.831 31.2 109.821 31.32 109.811 31.34C109.951 34.8 110.081 38.25 110.221 41.71C110.221 41.78 110.251 42.18 110.601 42.45C110.871 42.67 111.181 42.68 111.261 42.67C112.911 42.67 114.551 42.69 116.201 42.69C116.241 42.69 116.751 42.73 117.071 42.32C117.301 42.03 117.271 41.7 117.261 41.62C115.921 28.47 114.571 15.31 113.231 2.15999C113.231 2.06999 113.261 1.32999 112.661 0.82999C112.181 0.41999 111.621 0.44999 111.501 0.44999H105.731C105.641 0.43999 104.791 0.35999 104.191 1.01999L104.181 1.03999ZM108.901 10.7C108.951 10.76 108.951 10.82 108.951 10.83C109.111 14.9 109.281 18.98 109.441 23.05C109.441 23.05 109.471 23.2 109.371 23.3C109.311 23.36 109.231 23.37 109.211 23.37H107.891C107.891 23.37 107.731 23.39 107.621 23.28C107.531 23.18 107.541 23.05 107.541 23.04C107.721 18.98 107.901 14.92 108.081 10.86C108.081 10.85 108.071 10.77 108.121 10.71C108.191 10.63 108.291 10.65 108.301 10.65H108.761C108.761 10.65 108.851 10.65 108.911 10.71L108.901 10.7Z" fill="white"/>
<path d="M135.98 38.3C136.77 36.96 137.17 35.46 137.17 33.8V1.97999C137.18 1.86999 137.21 1.41999 136.9 1.00999C136.49 0.469993 135.83 0.469993 135.76 0.469993C134.32 0.469993 132.88 0.469993 131.45 0.469993C131.34 0.469993 130.71 0.429993 130.2 0.899993C129.6 1.43999 129.65 2.19999 129.66 2.28999V34.26C129.66 34.37 129.65 34.54 129.58 34.74C129.51 34.92 129.41 35.08 129.26 35.23C128.99 35.5 128.67 35.64 128.3 35.64C127.96 35.64 127.66 35.5 127.38 35.23C127.23 35.08 127.13 34.92 127.06 34.75C126.98 34.53 126.98 34.34 126.98 34.27V2.53999C127.02 1.65999 126.68 0.899993 126.08 0.609993C125.94 0.539993 125.74 0.469993 125.45 0.469993H121.09C120.97 0.469993 120.38 0.469993 119.9 0.939993C119.34 1.48999 119.4 2.22999 119.41 2.31999C119.41 2.31999 119.36 20.29 119.41 33.8C119.41 34.21 119.43 35.68 120.04 37.17C120.2 37.56 120.39 37.94 120.6 38.3C121.39 39.64 122.47 40.71 123.82 41.5C125.17 42.3 126.66 42.7 128.29 42.7C129.92 42.7 131.45 42.3 132.78 41.5C134.12 40.7 135.18 39.64 135.98 38.3Z" fill="white"/>
<path d="M50.6802 36.43C50.2602 36.04 49.7202 36.12 49.6502 36.13H45.3902C45.3902 36.13 44.4602 36.22 43.9302 35.54C43.5402 35.04 43.6102 34.47 43.6302 34.35V2.21C43.6302 2.11 43.6702 1.37 43.1102 0.860001C42.7802 0.560001 42.4102 0.490001 42.2402 0.470001H37.6202C37.4602 0.480001 37.0102 0.530001 36.6202 0.880001C36.0002 1.44 36.0802 2.27 36.0902 2.36C36.0802 15.06 36.0702 27.76 36.0602 40.46C36.0602 40.61 36.0202 41.34 36.5702 41.98C37.1702 42.67 38.0002 42.7 38.1302 42.7H49.4402C50.1302 42.74 50.7302 42.48 50.9602 42.02C51.0102 41.92 51.0602 41.77 51.0602 41.55V37.27C51.0602 37.19 51.0402 36.76 50.6802 36.43Z" fill="white"/>
<path d="M59.7302 45C63.0602 45 65.7602 42.3 65.7602 38.96C65.7602 35.62 63.0602 32.92 59.7302 32.92C56.4002 32.92 53.7002 35.62 53.7002 38.96C53.7002 42.3 56.4002 45 59.7302 45Z" fill="#B02673"/>
<path d="M154.851 23.66C156.071 22.54 156.9 21.28 157.34 19.87C157.78 18.46 158 17.32 158 16.44V10.49C158 8.62999 157.55 6.93999 156.65 5.42999C155.75 3.91999 154.541 2.71999 153.021 1.81999C152.191 1.32999 151.49 1.07999 151.2 0.979987C150.5 0.739987 149.401 0.459987 147.991 0.469987H142.551C142.401 0.469987 141.551 0.439987 140.881 1.10999C140.101 1.87999 140.21 2.89999 140.23 3.01999V41.34C140.23 41.42 140.201 41.96 140.631 42.37C140.991 42.71 141.421 42.71 141.521 42.71H146.29C146.29 42.71 147.02 42.86 147.48 42.35C147.8 41.99 147.79 41.56 147.78 41.46C147.78 34.28 147.78 26.37 147.78 26.32C147.78 26.29 147.801 26.28 147.801 26.28C147.821 26.26 147.851 26.26 147.851 26.26H148.161C148.161 26.26 148.2 26.26 148.23 26.28C148.24 26.3 148.241 26.31 148.241 26.32C148.241 26.36 149.071 32.75 150.271 41.97C150.281 42.04 150.341 42.3 150.581 42.49C150.851 42.71 151.151 42.7 151.22 42.7H157.191C157.191 42.7 157.521 42.7 157.711 42.45C157.911 42.19 157.85 41.9 157.84 41.86C156.84 36.05 155.84 30.24 154.84 24.43V23.67L154.851 23.66ZM147.851 19.64C147.771 19.56 147.79 19.45 147.79 19.45V7.25999C147.79 7.25999 147.791 7.18999 147.831 7.13999C147.881 7.07999 147.951 7.07999 147.961 7.07999H148.2C148.42 7.07999 148.831 7.09999 149.271 7.30999C149.441 7.39999 149.6 7.49999 149.75 7.62999C150.17 7.99999 150.381 8.89999 150.381 10.33V16.43C150.381 17.89 150.17 18.79 149.75 19.15C149.33 19.51 148.81 19.68 148.2 19.68H148.03C148.03 19.68 147.93 19.69 147.86 19.62L147.851 19.64Z" fill="white"/>
<path d="M91.3705 35.8C90.9105 35.4 90.9105 34.84 90.9205 34.75V26.48C90.9205 26.43 90.9005 26.03 91.2105 25.73C91.5505 25.41 91.9805 25.48 92.0305 25.49C92.6605 25.48 93.2905 25.46 93.9105 25.45C93.9605 25.45 94.6705 25.53 95.0905 25C95.3105 24.72 95.3405 24.41 95.3405 24.28V19.31C95.3405 19.24 95.4005 18.7 94.9805 18.27C94.5505 17.83 93.9805 17.88 93.9205 17.89C93.2605 17.87 92.5905 17.85 91.9305 17.83C91.8705 17.83 91.5105 17.87 91.2205 17.6C90.8905 17.3 90.9205 16.88 90.9305 16.83V8.49998C90.9305 8.42998 90.8605 7.89998 91.2505 7.47998C91.6705 7.01998 92.2605 7.06997 92.3205 7.07998H96.3205C96.3905 7.07998 96.8605 7.11998 97.2305 6.75998C97.5705 6.42998 97.5805 6.01998 97.5805 5.93998V1.73998C97.5805 1.67998 97.5905 1.05998 97.0905 0.689975C96.7605 0.439975 96.4005 0.459975 96.2905 0.459975H84.7505C84.5905 0.469975 84.2505 0.519975 83.9305 0.759975C83.2905 1.24998 83.3505 2.09998 83.3605 2.16998V40.59C83.3605 40.73 83.4005 41.59 84.1105 42.19C84.6305 42.63 85.2005 42.68 85.4005 42.69C88.8605 42.69 92.3105 42.69 95.7705 42.69C95.8705 42.69 96.5805 42.72 97.1105 42.18C97.5605 41.72 97.5905 41.16 97.5905 41.03C97.5905 39.93 97.5905 38.83 97.5905 37.72C97.5905 37.62 97.5205 36.84 96.8505 36.4C96.3905 36.09 95.9105 36.12 95.7605 36.13H92.2705C92.1605 36.13 91.7505 36.11 91.3905 35.8H91.3705Z" fill="white"/>
<path d="M163.89 2.26C163.89 3.53 162.87 4.53 161.58 4.53C160.29 4.53 159.25 3.53 159.25 2.26C159.25 0.99 160.28 0 161.59 0C162.9 0 163.89 0.99 163.89 2.26ZM159.83 2.26C159.83 3.26 160.59 4.06 161.59 4.06C162.57 4.07 163.31 3.26 163.31 2.27C163.31 1.28 162.57 0.45 161.56 0.45C160.55 0.45 159.82 1.26 159.82 2.25L159.83 2.26ZM161.22 3.43H160.7V1.17C160.91 1.14 161.2 1.1 161.57 1.1C162 1.1 162.19 1.17 162.34 1.28C162.48 1.38 162.57 1.54 162.57 1.76C162.57 2.04 162.36 2.21 162.1 2.3V2.33C162.32 2.4 162.43 2.58 162.5 2.88C162.57 3.22 162.62 3.35 162.66 3.43H162.11C162.04 3.35 162 3.15 161.93 2.88C161.89 2.65 161.75 2.54 161.46 2.54H161.21V3.43H161.22ZM161.23 2.16H161.48C161.77 2.16 162 2.06 162 1.83C162 1.62 161.85 1.49 161.52 1.49C161.38 1.49 161.29 1.5 161.23 1.52V2.17V2.16Z" fill="white"/>
</g>
<defs>
<clipPath id="clip0_1363_72">
<rect width="163.89" height="45" fill="white"/>
</clipPath>
</defs>
</svg>
